<svg id="Layer_1" data-name="Layer 1" xmlns="http://www.w3.org/2000/svg" viewBox="0 0 119.13 165.01"><defs><style>.cls-1{fill:#fff;}</style></defs><g id="RltRGk.tif"><path class="cls-1" d="M22.22,80l-1.83,1.27L21,82.76l-5,1.61,3.58,5.16-1,.86,1.51.29a6.49,6.49,0,0,0,.3,1.63c.16.29.58.43.77.56.49.66.84,1.59,1.47,1.87s1.45-.24,2.2-.4c-.19,1.11-.59,2.89,1.87,2.31.19.65.21,1.53.53,1.65,1.5.6,2.38.14,2.89-1.49l.32,1.85,1.25-.53-.19,2.64L33.05,99v5.52l.73.24,2.09-1.67-.24,2.08.28.05,1-2.63.15,3,.22,0,.34-1.42,1.59,2.91,1.89-5.12.72.17.39,3.65,1-1.25,3.51.32c0-.11,0,.32.11.75l1.86-1.12a8.36,8.36,0,0,0-.58,1.57,9.28,9.28,0,0,0,.12,1.66,13.39,13.39,0,0,0,1.81-.65c.21-.11.25-.54.51-.67.09,4,3.3,6.28,4.54,9.58l1-1.77.24,2.61.71-.63,5.49,6.2L63,122c-1-1.14-1.9-2.33-3-3.4-1.61-1.61-1.72-2-.64-4.48l1.73,3.49.61-.86,2.11,2.57-.3-1.54H65.9c1-2.79-2.12-3-2.91-4.72a13.81,13.81,0,0,0-1.43.49l.24-5.14.89,1.46.21-.44L66,112.52l.16-1.81h.6v2.45l.68-.35,4.33,3.93-.32-3.46.56-.12.66,2.76.84-3.52c.51,2.24,1,4.21,1.36,6l2.69-5.21.41,3.41.31.12.68-2,.27,2L82.53,114l-1.33,4.35.55.19,1-2.15c.26.25.4.34.46.46.54,1,1.07,2,1.6,3a27.36,27.36,0,0,0,3.46-2.52,15.07,15.07,0,0,0,1.87-2.94l.74,3.28-1,.42c-.64,1.64-1.07,2.73-1.5,3.82,2.54-1.83,4.62-3.9,4.89-7.69l.81,1.78,1-3.8V116l.5.27c.69-.94,1.39-1.87,2.07-2.82a19.47,19.47,0,0,1,2.08-2.89c3.5-3.36,6.71-6.91,9-11.81l-1.47.84c.27-1,.87-2.17-.5-1.93l3-3h-1.5l2.42-3.81,1,.37V88.61l.23,0,.37,1.16,1-1.35.33,1.27.56,0c0-2,.69-4.38-.17-5.87-1.26-2.18.82-3.41.37-5.09.52,2.42,1.06,4.83,1.53,7.25.34,1.74.58,3.49.89,5.23.08.43.15,1.12.39,1.21,2.59.9,1.66,3.08,1.52,4.68a45.81,45.81,0,0,1-1.49,6.57l-.87-.23.63-2.14a3.69,3.69,0,0,0-4.43,1.4c-.16.23-.44.61-.37.74,1.1,1.88-.17,3-1,4.52l4.42-4.57c0,2.85-1.62,3.9-3.1,4.84-1.93,1.22-3.82,2.32-3.76,5.1l-.91-2.43-.54.16.17,1.21H99.8l0,.32,5.43.76,0,.55H99.73v.57l4.92.41c-1.74,1.56-4.07-.24-6.28,1.08,2.3.62,4.35,1.06,6.32,1.75a4,4,0,0,1,2.2,1.66,33.54,33.54,0,0,1,2.65,7.09c.31,1.47-.38,3.17-.64,4.77-.18,1-.39,2.06-.65,3.44,1.8.12,1.59-1.87,2.42-2.67,1.66,3.16.7,5-3.2,5.56l-.53,5.65c-1-.22-2.83-.22-4.19-1-1.55-.91-2.37.17-3.55.42-2.95.61-6,1-9.52,1.51l4.46-1.61c-.94-1.29-4.14-.63-5.14,1-2.27-1.15-2.27-1.15-3.47.21l5,1.6-8.69-.46-.16.55L91.1,151l-.36.55c-3.76-2.21-7.42-4.62-11.33-6.51-1.23-.6-3.14.18-5.16.37,1.2,1.59,2.2,2.92,3.21,4.24l-.32.33-2-1.81-.33.25c1,1.44,2.16,2.83,3.08,4.33s1.48,2.91,2.21,4.37l-1,.54c-.78-1.33-1.56-2.65-2.34-4-1.41-2.44-2.8-4.9-4.29-7.29-.13-.22-1.29-.17-1.42.07-.6,1-1.42,2.19-1.39,3.29a80.49,80.49,0,0,0,.92,9.67c.26,1.67,1.06,3.27,1.15,5.14a9.58,9.58,0,0,0-1-1.62c-.4-.43-1.23-.6-1.42-1.06a9.27,9.27,0,0,1-.24-2.58l-.5.69c-.67-1.46-1.81-2.93-2-4.5-.17-1.79.55-3.66.6-5.78q-2.39,2.73-4.75,5.48a8,8,0,0,0-1.11,1.43,3.45,3.45,0,0,0-.56,1.95A53.67,53.67,0,0,1,62,164l-3.18-7.09c-.59.84-1.9,1.73-.86,3.46.14.23-.38.86-.66,1.42L61.05,164c-.29.13-.58.38-.77.31-4-1.42-7.86.79-11.88.36s-8.33-.1-12.5-.1-8.35.13-12.51-.05c-1,0-1.89-1.09-2.84-1.69l-1.37.45a8.57,8.57,0,0,0,.41-1.24c.13-.88.19-1.77.28-2.66-2.45-.81-3.7.39-4.29,2.72l1-.13c-1.32,3.11-1.32,3.11-3.52,2.53-.21-4.93-.35-9.9-.66-14.86a24.94,24.94,0,0,0-3.33-12c-4.47-7.34-6.42-15.79-8.31-24.13a22.57,22.57,0,0,1,1.41-13.8A14.1,14.1,0,0,0,3,90.42C2.62,88.91,1.4,87.63.72,86.18c-.41-.89-1-2.15-.61-2.81s1.71-.84,3-1.38c.35-2.1.62-4.74,1.27-7.3a23.48,23.48,0,0,1,2.36-5.81c.79-1.38,2.53-1.92,3.72-3.13s3.82-1.21,5.83-1.67c.32-.07.7.18,1.06.28-2.25-.18-3.49,2.9-6,1.87-.17-.07-.58.19-.76.4-1.09,1.31-2.16,2.65-3.34,4.12l6.25,3.5.67-.68c-.69-.88-1.35-1.77-2.06-2.63s-2-1.26-.64-2.43c1.37.94,2.93,1.64,3.94,2.81a43.71,43.71,0,0,1,3.31,5.17c.16.24.58.31.88.46l-.07-.07Zm81.15,40,3.43-.84-5.06-1.87-.18.46,1.86,2.22c1.44,1.23,2.89,2.47,4.32,3.72-.59,1.6-1,3.19.69,4.68a3.48,3.48,0,0,0-.74-4.63C107,120.83,106.26,120.21,103.37,120ZM67,143.06a9.86,9.86,0,0,1,1.63-.57c.32-.06.69.17,1,.27a44.65,44.65,0,0,1,13.1-2.8c1.67-.12,3.34-.31,5-.34.28,0,.58.66.86,1a19.72,19.72,0,0,0-9.54.75l.09.65,9.42-1.43,9.18-1.95.6-1.82,3.73,1.19c-.54-2-2.14-2.39-3.91-2.52l-7-.5,0-.53,11.3.83.16-.52c-1.38-.36-2.75-.74-4.14-1.06-.67-.16-1.54,0-2-.35-1.38-1.1-4.07-2.18-5.72-2-.76.1-1.51.3-2.82.57l1.46.58c-8,1.62-16.51,2.14-23.5,7.57l13.43-4.59.15.42L74.44,138l.2.64,3.7-.67c-1.91,2.31-4.36,2.83-7,3-3.15-.54-5.2,1.91-7.8,3l1,.07-3.32,1.83.5,1c1.55-.85,3.1-1.69,4.64-2.55.38-.21.73-.46,1.09-.69Zm6.7-7.92c3.52-.76,7-1.62,10.56-2.24,1.87-.33,1.61-1.05.69-2.31l-4.63,2,.23.41-6.88,1.21a39.45,39.45,0,0,0-4.21,1.29c-2.71,1.16-5.36,2.46-8,3.71l.34.72Zm29.66-8.69-4.63.87-.05.43,8.54,3.25.37-.76c-.66-.43-1.93-.92-1.89-1.26.25-2-1.36-1.92-2.4-2.48a21.38,21.38,0,0,1,.67-2.1,5.33,5.33,0,0,1,.82-1.05c-.43-.27-.85-.75-1.31-.79-1.34-.12-2.7,0-4-.09-2.72-.11-5.44-.3-8.16-.33-.48,0-1,.62-1.92,1.29l3.43.52a3.17,3.17,0,0,1-1.8.79c-1.47.15-3,.19-4.43.29l-7.31.52c-1.16.09-2.33.21-3.49.32l.07.78h4V127l-6.25,1v.29l1.66.26-.87.48a5.16,5.16,0,0,0,2.33-.13c4.29-.86,8.54-2.07,12.87-2.46C94.08,126,98.71,126.4,103.31,126.45Zm-81.16,2.83-2.1,1.32a21.93,21.93,0,0,0,2.46.38c1.65.05,3.42.41,4.92-.07,3.46-1.12,4.24-4.28,4.6-7.43a50.44,50.44,0,0,0,0-5.77h.17l.75,4,.18-.08v-7.14l-1,1.36-.32-1.18-.33,0-.36,3.1-.28-.08-.62-2.25-.4.1v1.73l-.47.32-.25-1.25-.39.36L28.73,118l-.47.13-1.56-3.47V126.8l-1.39-2-2.22,3.47H21.33c3.17-1.59,1.45-4.48,2.73-6.61l.63,1.12.5-.55-1.65-1.43a18.46,18.46,0,0,1-.39-4.38c.47-3.43.54-6.7-1.63-9.66a2.79,2.79,0,0,1-.58-1.4c-.06-1.92-1.2-2.67-3.21-3v2.71c0,3.36-.32,6.77.09,10.08a49.07,49.07,0,0,1,.43,9.69C18.09,127.34,20.73,127.91,22.15,129.28Zm-8.51-3.92c-.07.71.1,1.57-.25,2.07-.85,1.21.85,1.19.84,2.18a33.52,33.52,0,0,0,.91,5.84l2.06.18c-2.49.49-1.51,2.71-2,4.05-.26.68.38,1.7.69,2.81l-.86,1,2.63.55v.24l-1.94.23,1.24.82a17.62,17.62,0,0,0-1,3,34.53,34.53,0,0,0-.23,4.88,19.61,19.61,0,0,0,.6,3.11l-.87,1.08,1.51-.25L15.89,159l4.06-.77a17,17,0,0,1,.45,1.66c.1.59.1,1.21.15,1.81a13.37,13.37,0,0,0,.56-2.86c.35-1.63.6-3.17-.77-4.49a1.23,1.23,0,0,1-.22-.79c-.24-4.17-.42-8.34-.69-12.51-.1-1.5,0-3-.11-4.47-.25-3.61-3.13-6.78-2.05-10.74,0-.15-.58-.48-1.27-1-.79-10,1-21-2.07-31.6L13.09,93,11.2,97.59l1.23.49-1.26,1.1.72-.05c.18.6.37,1.19.53,1.79a7.65,7.65,0,0,1,.17,1c.31,2.38.76,4.74.89,7.12.2,3.33.22,6.67.19,10a8.54,8.54,0,0,1-.84,2.42c1.45.8,1.5,2.21-.44,4.2Zm59.93,5.71.1.39a31,31,0,0,0-3.82,1.39A24.69,24.69,0,0,0,66.76,135l.45.61,9.24-4.8s.1.07.26.19l-.64,1.15c2.72.29,3.93-3,6.71-2.5.43.08.94-.49,1.44-.59.89-.17,1.81-.21,2.72-.3l-.08-.66c-2.68-.56-14.09,2-17,4ZM100.67,120c-4-2.52-6.18-2.14-8.46,1.12l9.94.7.14-1.11-6.91-1,.13-.69ZM7.14,109.76l.15.1a13,13,0,0,1-.06,3.53,3.75,3.75,0,0,0,2.29,4.48L8.24,107.33H7.76Zm52.33,42.35-.46-.47A7,7,0,0,0,57.56,153a49.66,49.66,0,0,0-3,5.56c-.29.65.11,1.62.2,2.44A13.11,13.11,0,0,0,57,158.72c.42-.68.23-1.72.54-2.51C58.11,154.81,58.83,153.47,59.47,152.11Zm56.45-61.76c-.29,3.48-1.17,7,1.39,10.46C116.81,97.08,116.36,93.72,115.92,90.35ZM92.07,128l-.26-.78c-3.11-.38-3.42-.24-4.28,2.36Zm-83-51.51.72-.91C9,75,8.19,74.39,7.36,73.87a6.69,6.69,0,0,0-1.11-.42,4.12,4.12,0,0,0-.16,1.28C6.44,76.51,7.88,76.24,9.06,76.44Z"/><path class="cls-1" d="M83.75,88.92c.87-4.14,1.74-8.29,2.7-12.89l1.92,5.17c.88-1.7,1.82-2.81,2-4,.73-4.63,3.48-7.92,7.9-9a2.46,2.46,0,0,1,1.49-.05c1.69.76,1.3-.45,1.28-1.52l5,2.44c-4.33.86-8.47,1.31-11.4,4.86l1.06,1.27-2.45,1.1.74.92-1.82.89.44,2.12L96.16,82c-3.82,2.54-7.86,5.23-12,8l1.7,1.52c-2.86,0-3,1.71-3,3.76H88l-.76,1.11-4.57-.94c-.6,3.55,2.55,2.76,3.78,4.16l-3.57-.43-.08.28,2,1-.06.21-2.38-.49-.64,3.16-5.11-.79.65-.69c-1.85-.86-3.68-2.11-5.69-2.53a54,54,0,0,0-8.27-.68c-2.25-.13-4.51-.22-6.77-.2a10.93,10.93,0,0,0-3,.62c-.15,0-.08.78-.15,1.57a4.27,4.27,0,0,0-1.45-.51c-3.89-.15-7.51-1.36-11.25-2.22-3.38-.78-6.42-2.58-9.94-2.9a5.18,5.18,0,0,1-4.14-3c-.73-1.5-1.84-2.83-2.46-4.43l2.36,1.73c2.07-3.4,3.5-7.13,7.77-8.46,1.16.83,2.26.25,3.36-.89,1.45-1.5,3.07-2.82,4.51-4.33a5,5,0,0,1,4.32-1.8c.64.06,1.84-.34,1.88-.65.14-1.1.32-2.64-.29-3.31a13.85,13.85,0,0,1-3.6-10.08,45.59,45.59,0,0,1,2.55-15.46,2.08,2.08,0,0,0,.18-1.08c-1.06-4.76,1-9.19,1.49-13.79.14-1.41,1.52-2.65,2-4.08a53.11,53.11,0,0,0,1.86-7.43c.76-4.52,4.07-7.4,6.67-10.72,1.09-1.4,2.3-2.52,2.49-4.53C61.82,1.68,63.28.87,64.12,0c.77,1.07,1.9,2,2.25,3.23C67.17,6,67.51,9,68.18,11.82c.9,3.8,4.31,5.44,6.92,7.76a5,5,0,0,1,1.11,1c1.41,2.43,2.68,4.94,4.18,7.32a26.86,26.86,0,0,1,3.87,14.2,38.46,38.46,0,0,0,3.53,14.66c.08.19.17.49.08.63a27.15,27.15,0,0,1-3,4.61c-1.56,1.68-1.78,2.74-.16,4.58l3.11-2.19,2.07.89-1.52,1.13c0,.17.1.37.14.57.13.62.55,1.42.31,1.84-1.64,2.88-3.5,5.64-5.12,8.53a7,7,0,0,0-.7,3.16c-.1,2.74,0,5.49,0,8.23ZM73.46,98.43l.54.28a43.9,43.9,0,0,0,2.3-4.26c.73-1.78,1.19-3.67,1.82-5.49.09-.27.5-.42.76-.63,1.52-1.8,3.28-3.9,1.9-7.11C76.73,86.51,75.2,92.52,73.46,98.43ZM84.71,54.06l.63-.12-1-3.75-.73-.08L82.35,54.2,84.71,53Z"/><path class="cls-1" d="M19.56,77a63.48,63.48,0,0,0-1.87-6.4c-.43-1.06-1.53-1.86-2.34-2.79,1.56-1.86,3.09-1.61,4.51.25a56,56,0,0,0,5.27,5.29l.57-.5-1.27-5.29c.21.06.59.12.59.19.15,3.23,2.35,2.26,4.19,2.11a12.14,12.14,0,0,1,2,.26l-.52,2.79-2-2.08-.54.37v2.48l2.08-.28a55.7,55.7,0,0,0-5,3.18,18.73,18.73,0,0,0-2.55,3L21,76.15l-1.5.73Z"/><path class="cls-1" d="M73.5,164.31,77,160.55l-5.26-.38c.47-.48.9-1.29,1.32-1.29a26.25,26.25,0,0,1,5.69.49c1.76.41,3.27-.31,3.37-2.16a15.43,15.43,0,0,0-.24-3.93l-.39,1.53c-.39-1-.78-1.87-1.12-2.79s-.63-1.85-1-3.11l3.39,1c1.07,2.86,2.27,6.33.25,8.61-2.36,2.66-4.28,6.83-8.93,6.42Z"/><path class="cls-1" d="M103.47,147.65l-1.15,1,.3.58,6.9-3.24-.89-1.45.51-.25c.36.84,1.1,1.74,1,2.49s-1.08,1.4-1.81,1.85a4.3,4.3,0,0,1-2.13.51,12.73,12.73,0,0,0-9.56,4.1A8.28,8.28,0,0,1,93.25,155c-3,1-6.08,1.84-8.27,2.48l3.2-5.4-.17,1.8,1.59-1.29.31,2a6.89,6.89,0,0,0,6.84-4.76A14.23,14.23,0,0,1,98.39,147l.5.31L98.61,150l4.68-2.67Z"/><path class="cls-1" d="M62.83,156.55l6.06,8.25c-1.83-.58-4.35-.92-4.4-1.49C64.26,161,59.87,159.61,62.83,156.55Z"/><path class="cls-1" d="M86.82,103.85l-3.5.51-.47-1.68C85.31,99.66,85.73,103.32,86.82,103.85Z"/><path class="cls-1" d="M100.13,108.81c1.52-.64-.33-3.64,2.46-3.44l.23-2C104.61,104,103.79,105.73,100.13,108.81Z"/><path class="cls-1" d="M72.81,108.58l-.16-2.2-1.22,1.32-.27-.06,2.7-4.63h.42l-1.15,5.61Z"/><path class="cls-1" d="M60.49,102.78l-3.82-.47.75-2.37.34,0-.22,1.77.34.14.81-1.46,1.62.3Z"/><path class="cls-1" d="M116.07,79.25a6.22,6.22,0,0,1,3.06,5.62c-1.41-2.08-2.47-3.65-3.54-5.21Z"/><path class="cls-1" d="M95.92,90.18l1.91-.72L95.28,89,96,87.87l3,1.19-1.45.84,3.14.77a19.8,19.8,0,0,1-2.63.11A13.55,13.55,0,0,1,95.92,90.18Z"/><path class="cls-1" d="M24,67c-.59-.38-1.43-.62-1.74-1.16-1.23-2.18-2.94-2.34-5-1.46,1.94-1.94,3.55-1.8,5,.38C22.76,65.59,23.41,66.3,24,67Z"/></g></svg>