<svg id="Layer_1" data-name="Layer 1" xmlns="http://www.w3.org/2000/svg" viewBox="0 0 64.14 172.49"><defs><style>.cls-1{fill:#fff;}</style></defs><g id="QGqeip.tif"><path class="cls-1" d="M62.66,65.59l.07-.5h.08a1.31,1.31,0,0,1,.06.27c.13,3.4.29,6.8.36,10.2.09,4.35.12,8.7.13,13A20.22,20.22,0,0,1,63,91a.81.81,0,0,0,0,.31,10.86,10.86,0,0,1,.32,1.76c0,2,0,4,0,6,0,3.3.08,6.59.13,9.89,0,3.69.11,7.38.11,11.07,0,.9-.3,1.8-.32,2.7,0,1.37.08,2.75.09,4.12,0,2,0,4,0,6,0,.54.34,1.06.35,1.6,0,2.88,0,5.77.06,8.65q.06,6,.14,12c0,1.63.19,3.27.19,4.9,0,.95-.21,1.9-.28,2.85s-.09,1.7-.08,2.55a3.77,3.77,0,0,1-1.36,3.19,22.7,22.7,0,0,1-3,2.27,8.45,8.45,0,0,1-2.68.67c-.4.06-.84-.2-1.25-.16-.64.06-1.27.3-1.91.37a15.45,15.45,0,0,1-1.8,0,9.77,9.77,0,0,0-2.76,0c-1.12.32-2.24.11-3.34.33a11.94,11.94,0,0,1-2.89.34c-1.27-.07-2.62.07-3.77-.76a1.16,1.16,0,0,0-.91-.19c-1,.39-2.07.05-3.1.06-1.55,0-3.11-.09-4.66-.1a2.22,2.22,0,0,0-2.07.83.5.5,0,0,1-.4.13c-1.95-.16-3.9-.28-5.83-.54s-3.91-.65-5.86-1c-1.43-.25-2.86-.49-4.28-.76a13.27,13.27,0,0,0-2-.46,10.94,10.94,0,0,0-2.34.29c-.14,0-.25.32-.34.5-.17.35-.34.73-.81.53A10.51,10.51,0,0,1,1,167a5.3,5.3,0,0,1-.62-2,40.56,40.56,0,0,1-.23-7.71c0-1-.12-1.92-.1-2.88C.14,152,.3,149.5.31,147a23.5,23.5,0,0,0-.24-5.92A2.89,2.89,0,0,1,0,140.4q.06-11.33.13-22.67c0-2.75.08-5.5.11-8.25L.39,95.65c0-2.81.08-5.63.08-8.45C.47,83.47.41,79.74.41,76c0-1,.11-2,.13-3,0-.52-.11-1-.09-1.56a68.41,68.41,0,0,1,.71-10A18,18,0,0,1,6,51.57c.63-.63,1.32-1.2,2-1.77s.77-.86.27-1.59a3.57,3.57,0,0,1-.52-2.62,45,45,0,0,1,.7-4.51,2.9,2.9,0,0,1,2.77-2.38,8.65,8.65,0,0,1,1.74.23l2.46.33c.72.11,1.19-.25,1.19-.92,0-2.6,0-5.19,0-7.79,0-2.4,0-4.8,0-7.21A1,1,0,0,0,16,22.4a25.63,25.63,0,0,1-2.52-1.74,5,5,0,0,1-1.85-4c0-1.92,0-3.84-.07-5.76a6.45,6.45,0,0,1,2.89-5.69,21,21,0,0,1,8.75-3.89C25.11.93,27,.72,28.92.51A51.15,51.15,0,0,1,34.56,0a22.72,22.72,0,0,1,8.89,1.59,13.26,13.26,0,0,1,5.42,4,5.51,5.51,0,0,1,1.26,3.58c-.06,2.95-.23,5.89-.38,8.83a4.68,4.68,0,0,1-4.13,4c-.65.07-.63.5-.62.94,0,1.85.09,3.7.1,5.56,0,4,0,8,0,12.05,0,.09,0,.2,0,.26.56,1,.05,2.07.13,3.09.07.76.15,1.51.28,2.26a17.91,17.91,0,0,0,.63,2.6c.22.61.39,1.26,1.3,1.46a22.07,22.07,0,0,1,6.39,2.13,16,16,0,0,1,7.23,8.45c.5,1.38.8,2.83,1.2,4.25,0,.19.13.38.19.57Z"/></g></svg>